# xmcd CD database file
# Copyright (C) 1993-1998 Ti Kan
# 
# Track frame offsets:
#     150
#     18400
#     40862
#     61170
#     79560
#     94892
#     107542
#     125385
#     139510
#     158947
#     179927
#     205442
#     223867
# 
# Disc length: 3233 seconds
# 
# Revision: 1
# Processed by: cddbd v1.4b41PL1 Copyright (c) Steve Scherf et al.
# Submitted via: DiscPlay 4.0.4
# 
DISCID=b60c9f0d
DTITLE=Young Neal and the Vipers - Hooloovoo
DYEAR=1900
DGENRE=
TTITLE0=Tired of Being Lied About
TTITLE1=The Man with the Wicked Wandering Eye
TTITLE2=Little Miss Prissy
TTITLE3=You Don't Know My Mind
TTITLE4=Sugar Daddy
TTITLE5=What's Better Than That ?
TTITLE6=Wipe the Sweat
TTITLE7=Think Evil
TTITLE8=The Class Brat
TTITLE9=Guitar Slinger
TTITLE10=She's Nineteen Years Old
TTITLE11=Trollin' For Love
TTITLE12=March On
EXTD=
EXTT0=
EXTT1=
EXTT2=
EXTT3=
EXTT4=
EXTT5=
EXTT6=
EXTT7=
EXTT8=
EXTT9=
EXTT10=
EXTT11=
EXTT12=
PLAYORDER=
